<?xml version="1.0" encoding="utf-8"?>
<!-- Generator: Adobe Illustrator 25.0.0, SVG Export Plug-In . SVG Version: 6.00 Build 0)  -->
<svg version="1.1" id="Layer_1" xmlns="http://www.w3.org/2000/svg" xmlns:xlink="http://www.w3.org/1999/xlink" x="0px" y="0px"
	 viewBox="0 0 800 227.28" style="enable-background:new 0 0 800 227.28;" xml:space="preserve">
<style type="text/css">
	.st0{fill:#FFFFFF;}
</style>
<g>
	<polygon class="st0" points="46.86,2.31 46.86,44.53 32.84,44.53 32.84,2.31 0.02,2.31 0.02,119.89 32.84,119.89 32.84,73.88 
		46.86,73.88 46.86,119.89 79.67,119.89 79.67,2.31 	"/>
</g>
<g>
	<path class="st0" d="M118.75,2.31h36.94l25.73,117.59h-31.99l-2.47-17.32H127.5l-2.47,17.32H93.03L118.75,2.31z M143.82,78.83
		l-6.6-43.54l-6.43,43.54H143.82z"/>
</g>
<g>
	<g>
		<path class="st0" d="M194.61,2.31h37.77c25.89,0,41.23,14.18,41.23,36.28c0,13.69-6.6,23.42-19.79,29.19l23.25,52.11h-34.8
			l-14.84-45.52v45.52h-32.82V2.31z M227.43,54.75c8.91-0.16,12.86-4.45,12.86-14.02c0-9.4-3.96-14.02-11.54-14.02h-1.32V54.75z"/>
	</g>
	<g>
		<path class="st0" d="M292.73,2.31h37.77c25.89,0,41.23,14.18,41.23,36.28c0,13.69-6.6,23.42-19.79,29.19l23.25,52.11h-34.8
			l-14.84-45.52v45.52h-32.82V2.31z M325.55,54.75c8.91-0.16,12.86-4.45,12.86-14.02c0-9.4-3.96-14.02-11.54-14.02h-1.32V54.75z"/>
	</g>
	<g>
		<path class="st0" d="M471.5,92.19c5.44,0,9.07-3.63,9.07-8.25c0-4.29-3.63-7.59-8.91-12.53c-13.85-12.86-23.09-21.93-23.09-37.27
			C448.58,14.51,463.25,0,484.69,0c8.24,0,17.15,2.31,26.55,6.76v30.51c-7.92-6.27-14.84-9.4-20.45-9.4c-5.11,0-8.25,2.97-8.25,7.09
			c0,4.78,3.96,7.59,9.4,11.87c14.84,11.87,23.42,19.96,23.42,37.27c0,22.92-15.67,38.09-39.74,38.09c-9.4,0-18.14-2.97-27.38-8.91
			V80.81C457.98,88.56,465.89,92.19,471.5,92.19"/>
	</g>
	<g>
		<path class="st0" d="M572.43,0c27.54,0,43.87,21.77,43.87,61.18c0,39.41-16.33,61.02-43.87,61.02c-27.54,0-44.03-21.6-44.03-61.02
			C528.39,21.77,544.88,0,572.43,0 M572.43,92.19c8.91,0,10.72-9.89,10.72-31.83c0-21.77-1.81-31.83-10.72-31.83
			c-8.91,0-10.89,10.06-10.89,31.83C561.54,82.29,563.52,92.19,572.43,92.19"/>
	</g>
</g>
<g>
	<g>
		<polygon class="st0" points="634.43,2.31 667.08,2.31 685.22,64.15 685.22,2.31 715.07,2.31 715.07,119.89 682.75,119.89 
			664.44,61.02 664.44,119.89 634.43,119.89 		"/>
	</g>
	<g>
		<path class="st0" d="M756.13,92.19c5.44,0,9.07-3.63,9.07-8.25c0-4.29-3.63-7.59-8.91-12.53c-13.85-12.86-23.09-21.93-23.09-37.27
			C733.21,14.51,747.89,0,769.33,0c8.24,0,17.15,2.31,26.55,6.76v30.51c-7.92-6.27-14.84-9.4-20.45-9.4c-5.11,0-8.24,2.97-8.24,7.09
			c0,4.78,3.96,7.59,9.4,11.87C791.42,58.71,800,66.79,800,84.11c0,22.92-15.67,38.09-39.74,38.09c-9.4,0-18.14-2.97-27.38-8.91
			V80.81C742.61,88.56,750.53,92.19,756.13,92.19"/>
	</g>
</g>
<g>
	<g>
		<polygon class="st0" points="426.48,21.42 426.48,2.31 393.66,2.31 393.66,38.87 		"/>
	</g>
	<g>
		<polygon class="st0" points="393.66,67.98 393.66,119.89 426.48,119.89 426.48,50.53 		"/>
	</g>
	<g>
		<polygon class="st0" points="446.71,186.01 450.54,186.01 460.6,218.12 471.28,184.44 482.41,217.83 492.08,186.01 495.85,186.01 
			482.41,227.28 471.28,193.66 460.6,227.28 		"/>
	</g>
	<g>
		<rect x="501.53" y="186.01" class="st0" width="3.65" height="40.2"/>
	</g>
	<g>
		<path class="st0" d="M515.19,186.01h6.02h1.8c3.82,0,6.8,0.11,9.44,2.03c2.47,1.8,3.99,5.11,3.99,9.05
			c0,7.93-4.5,11.07-13.38,11.07h-4.22v18.05h-3.65V186.01z M521.32,204.96c7.14,0,11.24-0.79,11.24-7.59c0-2.87-1.01-5.23-2.7-6.58
			c-1.86-1.52-4.56-1.57-8.55-1.57h-2.47v15.74H521.32z"/>
	</g>
	<g>
		<polygon class="st0" points="543.3,186.01 563.2,186.01 563.2,189.44 546.95,189.44 546.95,202.04 563.2,202.04 563.2,205.47 
			546.95,205.47 546.95,222.78 563.2,222.78 563.2,226.21 543.3,226.21 		"/>
	</g>
	<g>
		<rect x="588.33" y="186.01" class="st0" width="3.65" height="40.2"/>
	</g>
	<g>
		<polygon class="st0" points="609.13,189.44 598.06,189.44 598.06,186.01 623.86,186.01 623.86,189.44 612.79,189.44 
			612.79,226.21 609.13,226.21 		"/>
	</g>
	<g>
		<path class="st0" d="M666.08,226.21l-14.11-19.17h-2.19v19.17h-3.65v-40.2h7.36c8.71,0,13.04,3.6,13.04,10.96
			c0,6.3-3.99,10.06-10.46,10.06l14.45,19.17H666.08z M649.78,204.06h3.65c6.24,0,9.16-1.46,9.16-7.2c0-5.79-2.75-7.64-9.16-7.64
			h-3.65V204.06z"/>
	</g>
	<g>
		<rect x="675.81" y="186.01" class="st0" width="3.65" height="40.2"/>
	</g>
	<g>
		<path class="st0" d="M708.36,188.43c-10.06,0-16.86,7.53-16.86,18.16c0,9.78,7.08,17.32,16.86,17.32c8.94,0,15.24-5.9,15.35-14.39
			h-13.88v-3.15h17.88v0.56c0,12.65-7.48,20.35-19.68,20.35c-12.2,0-20.46-8.54-20.46-21.08c0-12.14,8.38-21.08,20.29-21.08
			c7.98,0,14,2.87,17.2,8.71l-2.64,2.3C719.15,191.07,714.32,188.43,708.36,188.43"/>
	</g>
	<g>
		<polygon class="st0" points="735.4,186.01 739.05,186.01 739.05,202.32 760.92,202.32 760.92,186.01 764.58,186.01 764.58,226.21 
			760.92,226.21 760.92,205.47 739.05,205.47 739.05,226.21 735.4,226.21 		"/>
	</g>
	<g>
		<polygon class="st0" points="781.72,189.44 770.65,189.44 770.65,186.01 796.45,186.01 796.45,189.44 785.38,189.44 
			785.38,226.21 781.72,226.21 		"/>
	</g>
</g>
<g>
	<g>
		<rect y="151.6" class="st0" width="796.46" height="2.5"/>
	</g>
</g>
</svg>
