<?xml version="1.0" encoding="utf-8"?>
<!-- Generator: Adobe Illustrator 25.0.0, SVG Export Plug-In . SVG Version: 6.00 Build 0)  -->
<svg version="1.1" id="Layer_1" xmlns="http://www.w3.org/2000/svg" xmlns:xlink="http://www.w3.org/1999/xlink" x="0px" y="0px"
	 viewBox="0 0 300 59.28" style="enable-background:new 0 0 300 59.28;" xml:space="preserve">
<style type="text/css">
	.st0{fill:#033F85;}
</style>
<path class="st0" d="M33.01,17.53c-0.69-4.67-2.94-13.89-12.1-13.89c-6.99,0-10.89,4.05-10.89,8.54c0,8.47,14.69,12.45,21.17,17.46
	c4.23,3.28,7.26,7.08,7.26,12.96c0,12.19-9.42,16.68-22.55,16.68c-6.49,0-11.76-2.58-15.38-4.91L0,40.11h2.51
	c1.04,4.41,3.02,15.43,14.34,15.43c7.52,0,11.75-4.47,11.75-9.74c0-8.47-10.11-11.58-18.05-16.68c-5.18-3.37-9.42-7.51-9.42-14.43
	C1.12,5.36,8.29,0,20.91,0c5.79,0,10.2,1.92,14.09,4.13l0.52,13.39H33.01z"/>
<path class="st0" d="M64.34,56.34c7.52,0,9.07-8.64,9.07-17.8c0-9.16-1.55-17.8-9.07-17.8c-7.52,0-9.07,8.64-9.07,17.8
	C55.27,47.7,56.82,56.34,64.34,56.34 M45.85,38.54c0-14,5.96-20.74,18.49-20.74s18.49,6.74,18.49,20.74c0,14-5.96,20.73-18.49,20.73
	S45.85,52.54,45.85,38.54"/>
<path class="st0" d="M87.35,56.51c5.01,0,6.48-1.56,6.48-7.52V28.69c0-6.14-3.11-6.91-6.48-6.91v-1.9l15.21-2.07V28h0.17
	c1.99-3.54,5.96-10.2,14.17-10.2c8.82,0,10.46,4.92,10.46,11.49V49c0,5.96,1.47,7.52,6.48,7.52v1.9h-21.69v-1.9
	c5.01,0,6.48-1.56,6.48-7.52v-12.7c0-10.45-1.29-13.22-5.53-13.22c-5.01,0-10.54,8.99-10.54,14.34V49c0,5.96,1.47,7.52,6.48,7.52
	v1.9H87.35V56.51z"/>
<path class="st0" d="M160.81,57.72c-1.56,0.61-5.86,1.56-7.5,1.56c-4.94,0-11.42,0.08-11.42-10.03V22.21h-7v-2.42
	c10.2,0,12.79-8.9,13.23-15.46h2.51v14.34h11.23v3.54h-11.23v25.75c0,5.79,2.5,8.06,6.99,8.06c1.13,0,2.16-0.11,3.2-0.46V57.72z"/>
<path class="st0" d="M189.93,39.49c-3.28,0.09-13.66,0.6-13.66,8.72c0,3.37,1.82,6.14,5.45,6.14c4.93,0,8.21-3.55,8.21-9.85V39.49z
	 M205.92,57.72c-2.94,0.95-5.44,1.56-9.08,1.56c-5.18,0-6.22-3.02-6.83-5.87c-1.73,1.9-5.44,5.87-11.84,5.87
	c-5.96,0-11.32-4.23-11.32-9.85c0-12.09,17.71-12.87,23.07-13.13v-4.32c0-4.66,0-11.23-5.96-11.23c-8.55,0-2.68,8.32-10.54,8.32
	c-2.41,0-4.92-0.62-4.92-3.65c0-6.22,8.73-7.61,15.81-7.61c10.89,0,14.34,4.32,14.34,14.17v17.2c0,5.27,1.04,7.17,3.89,7.17
	c1.12,0,2.25-0.43,3.37-0.78V57.72z"/>
<path class="st0" d="M208.78,56.51c5.01,0,6.48-1.56,6.48-7.52V28.69c0-6.14-3.11-6.91-6.48-6.91v-1.9l15.2-2.07v8.74h0.18
	c1.47-3.89,4.21-7.97,10.53-7.97c3.18,0,6.29,2.92,6.29,6.06c0,3.32-1.55,4.51-4.77,4.51c-4.92,0-2.01-5.29-5.66-5.29
	c-2.68,0-6.57,5.27-6.57,14.17V49c0,5.96,1.47,7.52,6.48,7.52v1.9h-21.69V56.51z"/>
<path class="st0" d="M266,39.49c-3.28,0.09-13.66,0.6-13.66,8.72c0,3.37,1.82,6.14,5.44,6.14c4.93,0,8.21-3.55,8.21-9.85V39.49z
	 M281.98,57.72c-2.94,0.95-5.44,1.56-9.08,1.56c-5.18,0-6.22-3.02-6.83-5.87c-1.73,1.9-5.44,5.87-11.84,5.87
	c-5.96,0-11.32-4.23-11.32-9.85c0-12.09,17.71-12.87,23.07-13.13v-4.32c0-4.66,0-11.23-5.96-11.23c-8.55,0-2.68,8.47-10.55,8.47
	c-2.42,0-4.92-0.77-4.92-3.8c0-6.22,8.73-7.61,15.81-7.61c10.89,0,14.34,4.32,14.34,14.17v17.2c0,5.27,1.04,7.17,3.88,7.17
	c1.13,0,2.26-0.43,3.38-0.78V57.72z"/>
<path class="st0" d="M293.87,58.36c2.83,0,5.21-2.2,5.21-4.97c0-2.75-2.38-4.94-5.21-4.94c-2.82,0-5.21,2.2-5.21,4.94
	C288.67,56.17,291.05,58.36,293.87,58.36 M287.75,53.39c0-3.3,2.83-5.86,6.13-5.86s6.13,2.56,6.13,5.86c0,3.3-2.83,5.89-6.13,5.89
	S287.75,56.69,287.75,53.39"/>
<path class="st0" d="M291.35,50.47h3.16c1.05,0,1.72,0.73,1.72,1.62c0,0.69-0.28,1.21-0.93,1.47v0.02c0.63,0.17,0.81,0.78,0.85,1.37
	l0.25,1.39h-1.29c-0.16-0.37-0.14-0.93-0.2-1.4c-0.09-0.62-0.33-0.89-0.98-0.89h-1.29v2.29h-1.29V50.47z M292.64,53.13h1.41
	c0.58,0,0.89-0.25,0.89-0.84c0-0.57-0.31-0.81-0.89-0.81h-1.41V53.13z"/>
</svg>
